#planch.obj

v -1.922871 -0.5706278 0.2181621
v -1.922871 0.5706278 0.218162
v 1.922871 0.5706278 0.218162
v 1.922871 -0.5706278 0.2181621
v -1.922871 -0.5706278 5.747841E-08
v 1.922871 -0.5706278 5.747841E-08
v 1.922871 0.5706278 -5.747841E-08
v -1.922871 0.5706278 -5.747841E-08
v -1.922871 -0.5706278 0.2181621
v -1.922871 -0.5706278 5.747841E-08
v -1.922871 0.5706278 -5.747841E-08
v -1.922871 0.5706278 0.218162
v 1.922871 -0.5706278 0.2181621
v 1.922871 -0.5706278 5.747841E-08
v -1.922871 -0.5706278 5.747841E-08
v -1.922871 -0.5706278 0.2181621
v 1.922871 0.5706278 0.218162
v 1.922871 0.5706278 -5.747841E-08
v 1.922871 -0.5706278 5.747841E-08
v 1.922871 -0.5706278 0.2181621
v -1.922871 0.5706278 0.218162
v -1.922871 0.5706278 -5.747841E-08
v 1.922871 0.5706278 -5.747841E-08
v 1.922871 0.5706278 0.218162

vn 0 1.086443E-07 1
vn 0 1.086443E-07 1
vn 0 1.086443E-07 1
vn 0 1.086443E-07 1
vn 0 -1.007284E-07 -1
vn 0 -1.007284E-07 -1
vn 0 -1.007284E-07 -1
vn 0 -1.007284E-07 -1
vn -1 0 0
vn -1 0 0
vn -1 0 0
vn -1 0 0
vn 0 -1 0
vn 0 -1 0
vn 0 -1 0
vn 0 -1 0
vn 1 0 0
vn 1 0 0
vn 1 0 0
vn 1 0 0
vn 0 1 0
vn 0 1 0
vn 0 1 0
vn 0 1 0

vt 0 0
vt 0 1
vt 1 1
vt 1 0
vt 0 0
vt 1 0
vt 1 1
vt 0 1
vt 0 0
vt 0 0
vt 0 1
vt 0 1
vt 1 0
vt 1 0
vt 0 0
vt 0 0
vt 1 1
vt 1 1
vt 1 0
vt 1 0
vt 0 1
vt 0 1
vt 1 1
vt 1 1

g planch
usemtl planch
usemap planch
f 1/1/1 3/3/3 2/2/2
f 1/1/1 4/4/4 3/3/3
f 5/5/5 7/7/7 6/6/6
f 5/5/5 8/8/8 7/7/7
f 9/9/9 11/11/11 10/10/10
f 9/9/9 12/12/12 11/11/11
f 13/13/13 15/15/15 14/14/14
f 13/13/13 16/16/16 15/15/15
f 17/17/17 19/19/19 18/18/18
f 17/17/17 20/20/20 19/19/19
f 21/21/21 23/23/23 22/22/22
f 21/21/21 24/24/24 23/23/23
