#Trampoline_1_000.obj

v 1.228155 0.061448 0.091993
v 1.228155 0.061448 0.041088
v 1.277945 0.041134 0.049502
v 1.277945 0.041134 0.083578
v 1.228155 0.025453 0.127989
v 1.277945 0.017038 0.107674
v 1.228155 -0.025453 0.127989
v 1.277945 -0.017038 0.107674
v 1.277945 0.017038 0.025406
v 1.228155 0.025453 0.005092
v 1.277945 -0.017038 0.025406
v 1.228155 -0.025453 0.005092
v 1.277945 -0.041134 0.049502
v 1.228155 -0.061448 0.041088
v 1.277945 -0.041134 0.083578
v 1.228155 -0.061448 0.091993
v 1.277945 0.017038 0.025406
v 1.227691 0 0.06654
v 1.277945 0.041134 0.049502
v 1.277945 0.041134 0.083578
v 1.277945 0.017038 0.107674
v 1.277945 -0.017038 0.107674
v 1.277945 -0.041134 0.083578
v 1.277945 -0.041134 0.049502
v 1.277945 -0.017038 0.025406
v -1.228155 -0.066511 0.06654
v -1.277945 -0.044523 0.06654
v -1.277945 -0.031482 0.098023
v -1.228155 -0.047031 0.113571
v -1.228155 -0.047031 0.01951
v -1.277945 -0.031482 0.035058
v -1.228155 0 2.9E-05
v -1.277945 0 0.022017
v -1.228155 0.047031 0.01951
v -1.277945 0.031482 0.035058
v -1.277945 0 0.111063
v -1.228155 0 0.133052
v -1.277945 0.031482 0.098023
v -1.228155 0.047031 0.113571
v -1.277945 0.044523 0.06654
v -1.228155 0.066511 0.06654
v -1.277945 0.031482 0.035058
v -1.277945 0.044523 0.06654
v -1.227691 0 0.06654
v -1.277945 0.031482 0.098023
v -1.277945 0 0.111063
v -1.277945 0 0.022017
v -1.277945 -0.031482 0.035058
v -1.277945 -0.044523 0.06654
v -1.277945 -0.031482 0.098023
v 0.058124 1.021042 0.055261
v 0.057533 0.904511 0.03205
v 0.086544 0.78074 0.786904
v 0.086782 0.937379 0.81852
v 0.057533 0.904511 0.03205
v -0.061082 0.904474 0.033953
v -0.073492 0.780732 0.789503
v 0.086544 0.78074 0.786904
v -0.061082 0.904474 0.033953
v -0.060951 1.021043 0.05717
v -0.07275 0.937329 0.821113
v -0.073492 0.780732 0.789503
v -0.060951 1.021043 0.05717
v 0.058124 1.021042 0.055261
v 0.086782 0.937379 0.81852
v -0.07275 0.937329 0.821113
v 1.021042 -0.058124 0.055261
v 0.904511 -0.057533 0.03205
v 0.78074 -0.086544 0.786904
v 0.937379 -0.086782 0.81852
v 0.904511 -0.057533 0.03205
v 0.904474 0.061081 0.033953
v 0.780732 0.073492 0.789503
v 0.78074 -0.086544 0.786904
v 0.904474 0.061081 0.033953
v 1.021043 0.060951 0.05717
v 0.937329 0.07275 0.821112
v 0.780732 0.073492 0.789503
v 1.021043 0.060951 0.05717
v 1.021042 -0.058124 0.055261
v 0.937379 -0.086782 0.81852
v 0.937329 0.07275 0.821112
v -0.058124 -1.021042 0.055261
v -0.057533 -0.904511 0.03205
v -0.086544 -0.78074 0.786904
v -0.086782 -0.937379 0.81852
v -0.057533 -0.904511 0.03205
v 0.061081 -0.904474 0.033953
v 0.073492 -0.780732 0.789503
v -0.086544 -0.78074 0.786904
v 0.061081 -0.904474 0.033953
v 0.060951 -1.021043 0.05717
v 0.072749 -0.937329 0.821112
v 0.073492 -0.780732 0.789503
v 0.060951 -1.021043 0.05717
v -0.058124 -1.021042 0.055261
v -0.086782 -0.937379 0.81852
v 0.072749 -0.937329 0.821112
v -1.021042 0.058124 0.055261
v -0.904511 0.057533 0.03205
v -0.78074 0.086544 0.786904
v -0.937379 0.086783 0.81852
v -0.904511 0.057533 0.03205
v -0.904474 -0.061081 0.033953
v -0.780732 -0.073492 0.789503
v -0.78074 0.086544 0.786904
v -0.904474 -0.061081 0.033953
v -1.021043 -0.060951 0.05717
v -0.937329 -0.072749 0.821112
v -0.780732 -0.073492 0.789503
v -1.021043 -0.060951 0.05717
v -1.021042 0.058124 0.055261
v -0.937379 0.086783 0.81852
v -0.937329 -0.072749 0.821112
v 1.007531 0.673213 0.075185
v 1.188465 0.236402 0.075185
v 1.188465 -0.236399 0.075185
v 1.007532 -0.673211 0.075185
v 0.673212 -1.007532 0.075185
v 0.67321 1.007533 0.075185
v 0.236401 -1.188465 0.075185
v 0.236399 1.188465 0.075185
v -0.2364 -1.188465 0.075185
v -0.2364 1.188465 0.075185
v -0.673211 1.007532 0.075185
v -0.673211 -1.007532 0.075185
v -1.007532 0.673211 0.075185
v -1.007532 -0.673211 0.075185
v -1.188465 0.2364 0.075185
v -1.188465 -0.2364 0.075185

vn 0.403976 0.8451369 0.350067
vn 0.403976 0.8451369 -0.350067
vn 0.403976 0.8451369 -0.350067
vn 0.403976 0.8451369 0.350067
vn 0.4039768 0.3500668 0.8451366
vn 0.4039768 0.3500668 0.8451366
vn 0.4039768 -0.3500668 0.8451366
vn 0.4039768 -0.3500668 0.8451366
vn 0.4039768 0.3500668 -0.8451366
vn 0.4039768 0.3500668 -0.8451366
vn 0.403976 -0.350067 -0.8451369
vn 0.403976 -0.350067 -0.8451369
vn 0.403976 -0.8451369 -0.350067
vn 0.403976 -0.8451369 -0.350067
vn 0.403976 -0.8451369 0.350067
vn 0.403976 -0.8451369 0.350067
vn 0.6631359 -0.286438 0.691523
vn 1 0 0
vn 0.6631359 -0.691523 0.286438
vn 0.6631359 -0.691523 -0.286438
vn 0.6631359 -0.286438 -0.691523
vn 0.6631359 0.286438 -0.691523
vn 0.6631359 0.691523 -0.286438
vn 0.6631368 0.6915218 0.2864389
vn 0.6631362 0.2864371 0.6915232
vn -0.4039758 -0.9147696 0
vn -0.4039762 -0.9147695 0
vn -0.4039767 -0.6468396 0.6468396
vn -0.4039767 -0.6468396 0.6468396
vn -0.4039761 -0.6468402 -0.6468393
vn -0.4039761 -0.6468402 -0.6468393
vn -0.4039771 0 -0.9147691
vn -0.4039762 0 -0.9147695
vn -0.4039761 0.6468402 -0.6468393
vn -0.4039761 0.6468402 -0.6468393
vn -0.4039762 0 0.9147695
vn -0.4039762 0 0.9147695
vn -0.4039761 0.6468402 0.6468393
vn -0.4039761 0.6468402 0.6468393
vn -0.4039762 0.9147695 0
vn -0.4039758 0.9147696 0
vn -0.6631361 -0.5292681 0.529269
vn -0.6631364 -0.7484985 0
vn -1 0 0
vn -0.6631358 -0.5292688 -0.5292688
vn -0.6631349 0 -0.7484999
vn -0.6631354 0 0.7484995
vn -0.6631361 0.5292681 0.529269
vn -0.663137 0.748498 0
vn -0.6631361 0.5292681 -0.529269
vn 0.9992923 0.004462001 -0.03735101
vn 0.9992923 0.004462001 -0.03735101
vn 0.9992923 0.004462001 -0.03735101
vn 0.9992923 0.004462001 -0.03735101
vn -0.002450999 -0.9868388 -0.161689
vn -0.002450999 -0.9868388 -0.161689
vn -0.002450999 -0.9868388 -0.161689
vn -0.002450999 -0.9868388 -0.161689
vn -0.9998669 0.006221 -0.015081
vn -0.9998669 0.006221 -0.015081
vn -0.9998669 0.006221 -0.015081
vn -0.9998669 0.006221 -0.015081
vn 0.001585001 0.9940485 0.1089271
vn 0.001585001 0.9940485 0.1089271
vn 0.001585001 0.9940485 0.1089271
vn 0.001585001 0.9940485 0.1089271
vn 0.004462001 -0.9992923 -0.03735101
vn 0.004462001 -0.9992923 -0.03735101
vn 0.004462001 -0.9992923 -0.03735101
vn 0.004462001 -0.9992923 -0.03735101
vn -0.9868388 0.002450999 -0.161689
vn -0.9868388 0.002450999 -0.161689
vn -0.9868388 0.002450999 -0.161689
vn -0.9868388 0.002450999 -0.161689
vn 0.006221 0.9998669 -0.015081
vn 0.006221 0.9998669 -0.015081
vn 0.006221 0.9998669 -0.015081
vn 0.006221 0.9998669 -0.015081
vn 0.9940485 -0.001585001 0.1089271
vn 0.9940485 -0.001585001 0.1089271
vn 0.9940485 -0.001585001 0.1089271
vn 0.9940485 -0.001585001 0.1089271
vn -0.9992923 -0.004462001 -0.03735101
vn -0.9992923 -0.004462001 -0.03735101
vn -0.9992923 -0.004462001 -0.03735101
vn -0.9992923 -0.004462001 -0.03735101
vn 0.002450999 0.9868388 -0.161689
vn 0.002450999 0.9868388 -0.161689
vn 0.002450999 0.9868388 -0.161689
vn 0.002450999 0.9868388 -0.161689
vn 0.9998669 -0.006221 -0.015081
vn 0.9998669 -0.006221 -0.015081
vn 0.9998669 -0.006221 -0.015081
vn 0.9998669 -0.006221 -0.015081
vn -0.001585001 -0.9940485 0.1089271
vn -0.001585001 -0.9940485 0.1089271
vn -0.001585001 -0.9940485 0.1089271
vn -0.001585001 -0.9940485 0.1089271
vn -0.004462001 0.9992923 -0.03735101
vn -0.004462001 0.9992923 -0.03735101
vn -0.004462001 0.9992923 -0.03735101
vn -0.004462001 0.9992923 -0.03735101
vn 0.9868388 -0.002450999 -0.161689
vn 0.9868388 -0.002450999 -0.161689
vn 0.9868388 -0.002450999 -0.161689
vn 0.9868388 -0.002450999 -0.161689
vn -0.006221 -0.9998669 -0.015081
vn -0.006221 -0.9998669 -0.015081
vn -0.006221 -0.9998669 -0.015081
vn -0.006221 -0.9998669 -0.015081
vn -0.9940485 0.001585001 0.1089271
vn -0.9940485 0.001585001 0.1089271
vn -0.9940485 0.001585001 0.1089271
vn -0.9940485 0.001585001 0.1089271
vn 0 0 1
vn 0 0 1
vn 0 0 1
vn 0 0 1
vn 0 0 1
vn 0 0 1
vn 0 0 1
vn 0 0 1
vn 0 0 1
vn 0 0 1
vn 0 0 1
vn 0 0 1
vn 0 0 1
vn 0 0 1
vn 0 0 1
vn 0 0 1

vt 0.615234 0.5
vt 0.615234 0.5
vt 0.615234 0.5
vt 0.615234 0.5
vt 0.615234 0.5
vt 0.615234 0.5
vt 0.615234 0.5
vt 0.615234 0.5
vt 0.615234 0.5
vt 0.615234 0.5
vt 0.615234 0.5
vt 0.615234 0.5
vt 0.615234 0.5
vt 0.615234 0.5
vt 0.615234 0.5
vt 0.615234 0.5
vt 0.615234 0.5
vt 0.615234 0.5
vt 0.615234 0.5
vt 0.615234 0.5
vt 0.615234 0.5
vt 0.615234 0.5
vt 0.615234 0.5
vt 0.615234 0.5
vt 0.615234 0.5
vt 0.615234 0.5
vt 0.615234 0.5
vt 0.615234 0.5
vt 0.615234 0.5
vt 0.615234 0.5
vt 0.615234 0.5
vt 0.615234 0.5
vt 0.615234 0.5
vt 0.615234 0.5
vt 0.615234 0.5
vt 0.615234 0.5
vt 0.615234 0.5
vt 0.615234 0.5
vt 0.615234 0.5
vt 0.615234 0.5
vt 0.615234 0.5
vt 0.615234 0.5
vt 0.615234 0.5
vt 0.615234 0.5
vt 0.615234 0.5
vt 0.615234 0.5
vt 0.615234 0.5
vt 0.615234 0.5
vt 0.615234 0.5
vt 0.615234 0.5
vt 0.616785 0.42
vt 0.616785 0.42
vt 0.616785 0.42
vt 0.616785 0.42
vt 0.616785 0.42
vt 0.616785 0.42
vt 0.616785 0.42
vt 0.616785 0.42
vt 0.616785 0.42
vt 0.616785 0.42
vt 0.616785 0.42
vt 0.616785 0.42
vt 0.616785 0.42
vt 0.616785 0.42
vt 0.616785 0.42
vt 0.616785 0.42
vt 0.616785 0.42
vt 0.616785 0.42
vt 0.616785 0.42
vt 0.616785 0.42
vt 0.616785 0.42
vt 0.616785 0.42
vt 0.616785 0.42
vt 0.616785 0.42
vt 0.616785 0.42
vt 0.616785 0.42
vt 0.616785 0.42
vt 0.616785 0.42
vt 0.616785 0.42
vt 0.616785 0.42
vt 0.616785 0.42
vt 0.616785 0.42
vt 0.616785 0.42
vt 0.616785 0.42
vt 0.616785 0.42
vt 0.616785 0.42
vt 0.616785 0.42
vt 0.616785 0.42
vt 0.616785 0.42
vt 0.616785 0.42
vt 0.616785 0.42
vt 0.616785 0.42
vt 0.616785 0.42
vt 0.616785 0.42
vt 0.616785 0.42
vt 0.616785 0.42
vt 0.616785 0.42
vt 0.616785 0.42
vt 0.616785 0.42
vt 0.616785 0.42
vt 0.616785 0.42
vt 0.616785 0.42
vt 0.616785 0.42
vt 0.616785 0.42
vt 0.616785 0.42
vt 0.616785 0.42
vt 0.616785 0.42
vt 0.616785 0.42
vt 0.616785 0.42
vt 0.616785 0.42
vt 0.616785 0.42
vt 0.616785 0.42
vt 0.616785 0.42
vt 0.616785 0.42
vt 0.613622 0.84
vt 0.613622 0.84
vt 0.613622 0.84
vt 0.613622 0.84
vt 0.613622 0.84
vt 0.613622 0.84
vt 0.613622 0.84
vt 0.613622 0.84
vt 0.613622 0.84
vt 0.613622 0.84
vt 0.613622 0.84
vt 0.613622 0.84
vt 0.613622 0.84
vt 0.613622 0.84
vt 0.613622 0.84
vt 0.613622 0.84

g Trampoline_1_000
usemtl Trampoline_1_000
usemap Trampoline_1_000
f 1/1/1 3/3/3 2/2/2
f 1/1/1 4/4/4 3/3/3
f 5/5/5 4/4/4 1/1/1
f 5/5/5 6/6/6 4/4/4
f 7/7/7 6/6/6 5/5/5
f 7/7/7 8/8/8 6/6/6
f 2/2/2 3/3/3 9/9/9
f 2/2/2 9/9/9 10/10/10
f 10/10/10 9/9/9 11/11/11
f 10/10/10 11/11/11 12/12/12
f 12/12/12 11/11/11 13/13/13
f 12/12/12 13/13/13 14/14/14
f 14/14/14 13/13/13 15/15/15
f 14/14/14 15/15/15 16/16/16
f 16/16/16 8/8/8 7/7/7
f 16/16/16 15/15/15 8/8/8
f 17/17/17 19/19/19 18/18/18
f 19/19/19 20/20/20 18/18/18
f 20/20/20 21/21/21 18/18/18
f 21/21/21 22/22/22 18/18/18
f 22/22/22 23/23/23 18/18/18
f 23/23/23 24/24/24 18/18/18
f 24/24/24 25/25/25 18/18/18
f 25/25/25 17/17/17 18/18/18
f 26/26/26 28/28/28 27/27/27
f 26/26/26 29/29/29 28/28/28
f 30/30/30 26/26/26 27/27/27
f 30/30/30 27/27/27 31/31/31
f 32/32/32 30/30/30 31/31/31
f 32/32/32 31/31/31 33/33/33
f 34/34/34 32/32/32 33/33/33
f 34/34/34 33/33/33 35/35/35
f 29/29/29 36/36/36 28/28/28
f 29/29/29 37/37/37 36/36/36
f 37/37/37 38/38/38 36/36/36
f 37/37/37 39/39/39 38/38/38
f 39/39/39 40/40/40 38/38/38
f 39/39/39 41/41/41 40/40/40
f 41/41/41 35/35/35 40/40/40
f 41/41/41 34/34/34 35/35/35
f 42/42/42 44/44/44 43/43/43
f 43/43/43 44/44/44 45/45/45
f 45/45/45 44/44/44 46/46/46
f 47/47/47 44/44/44 42/42/42
f 48/48/48 44/44/44 47/47/47
f 49/49/49 44/44/44 48/48/48
f 50/50/50 44/44/44 49/49/49
f 46/46/46 44/44/44 50/50/50
f 51/51/51 53/53/53 52/52/52
f 51/51/51 54/54/54 53/53/53
f 55/55/55 57/57/57 56/56/56
f 55/55/55 58/58/58 57/57/57
f 59/59/59 61/61/61 60/60/60
f 59/59/59 62/62/62 61/61/61
f 63/63/63 65/65/65 64/64/64
f 63/63/63 66/66/66 65/65/65
f 67/67/67 69/69/69 68/68/68
f 67/67/67 70/70/70 69/69/69
f 71/71/71 73/73/73 72/72/72
f 71/71/71 74/74/74 73/73/73
f 75/75/75 77/77/77 76/76/76
f 75/75/75 78/78/78 77/77/77
f 79/79/79 81/81/81 80/80/80
f 79/79/79 82/82/82 81/81/81
f 83/83/83 85/85/85 84/84/84
f 83/83/83 86/86/86 85/85/85
f 87/87/87 89/89/89 88/88/88
f 87/87/87 90/90/90 89/89/89
f 91/91/91 93/93/93 92/92/92
f 91/91/91 94/94/94 93/93/93
f 95/95/95 97/97/97 96/96/96
f 95/95/95 98/98/98 97/97/97
f 99/99/99 101/101/101 100/100/100
f 99/99/99 102/102/102 101/101/101
f 103/103/103 105/105/105 104/104/104
f 103/103/103 106/106/106 105/105/105
f 107/107/107 109/109/109 108/108/108
f 107/107/107 110/110/110 109/109/109
f 111/111/111 113/113/113 112/112/112
f 111/111/111 114/114/114 113/113/113
f 115/115/115 117/117/117 116/116/116
f 117/117/117 115/115/115 118/118/118
f 118/118/118 115/115/115 119/119/119
f 119/119/119 115/115/115 120/120/120
f 119/119/119 120/120/120 121/121/121
f 121/121/121 120/120/120 122/122/122
f 121/121/121 122/122/122 123/123/123
f 123/123/123 122/122/122 124/124/124
f 123/123/123 124/124/124 125/125/125
f 123/123/123 125/125/125 126/126/126
f 126/126/126 125/125/125 127/127/127
f 126/126/126 127/127/127 128/128/128
f 128/128/128 127/127/127 129/129/129
f 128/128/128 129/129/129 130/130/130
